<?xml version="1.0" standalone="no"?>
<!DOCTYPE svg PUBLIC "-//W3C//DTD SVG 20010904//EN"
 "http://www.w3.org/TR/2001/REC-SVG-20010904/DTD/svg10.dtd">
<svg version="1.0" xmlns="http://www.w3.org/2000/svg"
 width="700.000000pt" height="700.000000pt" viewBox="0 0 700.000000 700.000000"
 preserveAspectRatio="xMidYMid meet">
<metadata>
Created by potrace 1.11, written by Peter Selinger 2001-2013
</metadata>
<g transform="translate(0.000000,700.000000) scale(0.100000,-0.100000)"
fill="#000000" stroke="none">
<path d="M3377 6964 c-1 -1 -54 -5 -117 -9 -63 -3 -126 -8 -140 -10 -14 -2
-47 -6 -75 -10 -27 -3 -79 -11 -115 -17 -36 -5 -78 -12 -95 -14 -16 -3 -43 -9
-60 -14 -16 -5 -41 -11 -55 -14 -111 -19 -365 -98 -525 -163 -809 -329 -1469
-950 -1835 -1728 -76 -161 -72 -152 -113 -260 -87 -226 -174 -570 -193 -765
-3 -30 -7 -61 -10 -68 -16 -52 -24 -515 -11 -677 76 -964 553 -1849 1323
-2457 257 -203 587 -390 894 -506 248 -94 533 -167 765 -197 28 -4 61 -8 75
-10 125 -19 515 -25 700 -11 57 4 107 9 110 11 3 2 31 6 62 9 168 19 442 83
647 152 673 228 1258 658 1682 1234 50 68 179 259 179 265 0 1 22 40 49 87 42
73 111 211 164 328 67 149 156 425 203 635 10 42 44 241 50 290 11 90 13 109
20 220 12 179 7 452 -10 590 -2 11 -6 49 -11 85 -4 36 -9 74 -11 85 -2 11 -9
49 -14 85 -52 324 -213 773 -387 1080 -108 190 -257 402 -389 557 -197 231
-542 532 -764 667 -25 15 -79 48 -120 73 -89 54 -298 160 -390 198 -36 14 -78
32 -95 39 -80 36 -394 133 -480 149 -16 4 -70 15 -120 26 -49 10 -117 22 -150
26 -33 4 -67 9 -75 10 -32 6 -118 15 -195 21 -72 5 -363 12 -368 8z m-919
-888 c16 -15 26 -39 29 -67 4 -38 1 -48 -24 -74 -15 -17 -62 -46 -103 -65 -90
-40 -162 -79 -250 -133 -62 -39 -229 -155 -240 -167 -3 -3 -34 -30 -70 -60
-380 -319 -690 -785 -820 -1231 -26 -89 -24 -85 -45 -184 -9 -44 -23 -91 -32
-103 -19 -31 -77 -55 -114 -47 -41 9 -79 58 -79 103 0 95 65 332 147 532 267
656 829 1239 1453 1507 66 28 113 24 148 -11z m1265 -1016 c354 -57 646 -205
887 -449 110 -111 132 -138 195 -232 132 -197 217 -415 256 -659 16 -97 16
-354 0 -450 -7 -41 -14 -84 -16 -96 -13 -82 -73 -257 -127 -369 -211 -439
-637 -772 -1100 -860 -45 -9 -99 -19 -119 -24 -42 -9 -365 -7 -429 3 -363 59
-664 213 -912 468 -230 237 -386 553 -434 878 -10 69 -13 366 -4 408 5 20 11
60 14 89 3 28 10 62 15 75 5 13 9 28 10 33 10 59 53 186 94 275 154 336 424
611 760 772 85 41 261 104 317 113 19 3 42 8 50 10 30 8 76 15 145 21 39 4 71
8 73 9 8 7 264 -5 325 -15z"/>
<path d="M3370 4853 c-174 -21 -298 -54 -434 -115 -405 -182 -690 -539 -783
-980 -25 -122 -25 -402 2 -537 81 -415 380 -790 771 -969 94 -42 239 -89 309
-98 22 -3 58 -10 80 -15 43 -9 338 -5 395 5 367 71 660 247 872 527 186 245
279 536 273 853 -8 397 -175 745 -490 1021 -150 132 -424 259 -625 290 -25 4
-56 10 -70 12 -31 5 -266 10 -300 6z m208 -1159 c80 -33 132 -111 132 -199 0
-156 -159 -263 -301 -202 -110 47 -165 185 -115 287 28 59 84 111 131 123 43
10 117 6 153 -9z"/>
</g>
</svg>
