<?xml version="1.0" encoding="UTF-8"?>
<svg width="165px" height="165px" viewBox="0 0 165 165" version="1.1" xmlns="http://www.w3.org/2000/svg" xmlns:xlink="http://www.w3.org/1999/xlink">
    <!-- Generator: Sketch 47.1 (45422) - http://www.bohemiancoding.com/sketch -->
    <title>noun_1324878_cc</title>
    <desc>Created with Sketch.</desc>
    <defs></defs>
    <g id="Page-1" stroke="none" stroke-width="1" fill="none" fill-rule="evenodd">
        <g id="noun_1324878_cc" fill="#000000">
            <path d="M82.34,164.5 C37.141,164.5 0.5,127.859 0.5,82.66 C0.5,37.46 37.141,0.82 82.34,0.82 C127.539,0.82 164.179,37.461 164.179,82.66 C164.18,127.859 127.539,164.5 82.34,164.5 L82.34,164.5 Z M82.34,120.008 C102.965,120.008 119.688,103.285 119.688,82.66 C119.688,62.035 102.966,45.312 82.34,45.312 C61.714,45.312 44.993,62.035 44.993,82.66 C44.993,103.285 61.715,120.008 82.34,120.008 L82.34,120.008 Z M82.34,114.86 C100.124,114.86 114.541,100.443 114.541,82.659 C114.541,64.875 100.124,50.459 82.34,50.459 C64.556,50.459 50.14,64.876 50.14,82.66 C50.14,100.444 64.557,114.86 82.34,114.86 L82.34,114.86 Z M82.34,87.834 C85.198,87.834 87.514,85.518 87.514,82.66 C87.514,79.802 85.198,77.486 82.34,77.486 C79.482,77.486 77.165,79.802 77.165,82.66 C77.165,85.518 79.482,87.834 82.34,87.834 L82.34,87.834 Z M21.742,69.947 C24.846,51.25 39.727,33.143 57.164,25.92 C58.474,25.381 59.1,23.882 58.561,22.572 C58.023,21.261 56.523,20.636 55.213,21.175 C36.118,29.085 20.072,48.657 16.674,69.123 C16.446,70.522 17.396,71.841 18.795,72.068 C20.194,72.295 21.514,71.346 21.742,69.947 Z" id="Shape"></path>
        </g>
    </g>
</svg>