<?xml version="1.0" encoding="UTF-8"?>
<svg width="28px" height="28px" viewBox="0 0 28 28" version="1.1" xmlns="http://www.w3.org/2000/svg" xmlns:xlink="http://www.w3.org/1999/xlink">
    <!-- Generator: Sketch 47.1 (45422) - http://www.bohemiancoding.com/sketch -->
    <g id="Page-1" stroke="none" stroke-width="1" fill="none" fill-rule="evenodd">
        <g id="refresh-icon" fill-rule="nonzero" fill="#FFFFFF">
            <path d="M27.094,12.945 C25.583,12.958 24.073,12.966 22.563,12.979 C22.817,15.579 21.96,18.266 19.969,20.254 C16.434,23.788 10.706,23.788 7.173,20.254 C3.639,16.723 3.639,10.994 7.173,7.46 C10.188,4.444 14.798,4.015 18.282,6.147 C17.101,7.314 15.712,8.696 15.712,8.696 C14.712,9.758 15.729,10.462 16.402,10.466 L25.23,10.466 C25.568,10.466 25.84,10.193 25.841,9.855 L25.841,1.099 C25.882,0.274 24.976,-0.493 24.085,0.399 C24.085,0.399 22.59,1.878 21.552,2.908 C16.246,-0.97 8.768,-0.53 3.975,4.262 C-1.325,9.562 -1.325,18.155 3.975,23.454 C9.274,28.752 17.867,28.752 23.166,23.454 C26.05,20.572 27.35,16.714 27.094,12.945 Z" id="Shape"></path>
        </g>
    </g>
</svg>